<svg width="1200" height="630" viewBox="0 0 1200 630" fill="none" xmlns="http://www.w3.org/2000/svg">
  <defs>
    <linearGradient id="bg" x1="120" y1="84" x2="1064" y2="566" gradientUnits="userSpaceOnUse">
      <stop stop-color="#09121D"/>
      <stop offset="1" stop-color="#102437"/>
    </linearGradient>
    <linearGradient id="beamA" x1="156" y1="356" x2="1096" y2="356" gradientUnits="userSpaceOnUse">
      <stop stop-color="#79D3FF" stop-opacity="0"/>
      <stop offset="0.38" stop-color="#79D3FF"/>
      <stop offset="0.68" stop-color="#A6FF6B"/>
      <stop offset="1" stop-color="#FF9B61" stop-opacity="0"/>
    </linearGradient>
    <linearGradient id="beamB" x1="188" y1="430" x2="1058" y2="250" gradientUnits="userSpaceOnUse">
      <stop stop-color="#FF9B61" stop-opacity="0"/>
      <stop offset="0.44" stop-color="#7CD8FF"/>
      <stop offset="1" stop-color="#A6FF6B" stop-opacity="0"/>
    </linearGradient>
    <filter id="softGlow" x="-20%" y="-20%" width="140%" height="140%">
      <feGaussianBlur stdDeviation="8" result="blur"/>
      <feMerge>
        <feMergeNode in="blur"/>
        <feMergeNode in="SourceGraphic"/>
      </feMerge>
    </filter>
    <pattern id="grid" width="36" height="36" patternUnits="userSpaceOnUse">
      <path d="M36 0H0V36" stroke="rgba(143, 170, 198, 0.16)" stroke-width="1"/>
    </pattern>
  </defs>

  <rect width="1200" height="630" rx="36" fill="url(#bg)"/>
  <rect x="28" y="28" width="1144" height="574" rx="28" fill="url(#grid)" opacity="0.72"/>

  <g opacity="0.15">
    <ellipse cx="982" cy="170" rx="222" ry="136" fill="#79D3FF"/>
    <ellipse cx="932" cy="500" rx="294" ry="128" fill="#A6FF6B"/>
    <ellipse cx="170" cy="544" rx="210" ry="120" fill="#FF9B61"/>
  </g>

  <g filter="url(#softGlow)">
    <path d="M156 404C272 404 352 376 426 328C524 264 612 214 738 214C872 214 978 250 1096 202" stroke="url(#beamA)" stroke-width="8" stroke-linecap="round"/>
    <path d="M188 486C306 486 392 454 490 382C580 316 676 266 786 266C896 266 980 292 1058 250" stroke="url(#beamB)" stroke-width="6" stroke-linecap="round"/>
  </g>

  <rect x="104" y="116" width="312" height="190" rx="26" fill="#0A1827" stroke="#17334B"/>
  <rect x="468" y="88" width="154" height="320" rx="30" fill="#0C1D2D" stroke="#1D425C"/>
  <rect x="692" y="180" width="392" height="244" rx="30" fill="#0B1B2B" stroke="#1A3950"/>
  <rect x="164" y="402" width="248" height="74" rx="18" fill="#0F2234" stroke="#21455E"/>

  <text x="132" y="154" fill="#7CD8FF" font-family="Segoe UI, Arial, sans-serif" font-size="18" font-weight="700" letter-spacing="2.5">
    CUDA PROGRAMMING FOR NVIDIA H100s
  </text>
  <text x="132" y="228" fill="#F3F7FB" font-family="Segoe UI, Arial, sans-serif" font-size="52" font-weight="700">
    Learn the
  </text>
  <text x="132" y="286" fill="#F3F7FB" font-family="Segoe UI, Arial, sans-serif" font-size="52" font-weight="700">
    asynchronous machine.
  </text>

  <text x="500" y="138" fill="#A6FF6B" font-family="Courier New, monospace" font-size="20" font-weight="700">
    TMA
  </text>
  <text x="500" y="208" fill="#CFE6F8" font-family="Courier New, monospace" font-size="18">
    cuTensorMap
  </text>
  <text x="500" y="278" fill="#CFE6F8" font-family="Courier New, monospace" font-size="18">
    cp.async.bulk
  </text>
  <text x="500" y="348" fill="#CFE6F8" font-family="Courier New, monospace" font-size="18">
    barrier arrival
  </text>

  <text x="724" y="226" fill="#F3F7FB" font-family="Segoe UI, Arial, sans-serif" font-size="24" font-weight="700">
    Hopper, WGMMA, and distributed execution
  </text>
  <text x="724" y="272" fill="#C9D9E8" font-family="Segoe UI, Arial, sans-serif" font-size="21">
    H100 architecture
  </text>
  <text x="724" y="308" fill="#C9D9E8" font-family="Segoe UI, Arial, sans-serif" font-size="21">
    mbarrier and correctness under overlap
  </text>
  <text x="724" y="344" fill="#C9D9E8" font-family="Segoe UI, Arial, sans-serif" font-size="21">
    warp-specialized kernel design
  </text>
  <text x="724" y="380" fill="#C9D9E8" font-family="Segoe UI, Arial, sans-serif" font-size="21">
    NVLink, NCCL, PMIx, Slurm
  </text>

  <text x="186" y="448" fill="#FF9B61" font-family="Courier New, monospace" font-size="18" font-weight="700">
    Prateek Shukla
  </text>

  <circle cx="564" cy="236" r="8" fill="#79D3FF"/>
  <circle cx="564" cy="306" r="8" fill="#A6FF6B"/>
  <circle cx="564" cy="376" r="8" fill="#FF9B61"/>
</svg>
